# xmcd CD database file
#
# Track frame offsets:
#	183
#	11208
#	23833
#	35545
#	48033
#	58333
#	68883
#	81283
#	92620
#	104608
#	116833
#	126883
#	135133
#	142808
#	153033
#	165133
#	174483
#	186408
#
# Disc length: 2601 seconds
#
# Revision: 0
# Processed by: cddbd v1.4PL0 Copyright (c) Steve Scherf et al.
# Submitted via: CDex 1.50
#
DISCID=e70a2712
DTITLE=Johnny Cash - The Classic
DYEAR=1989
DGENRE=Country
TTITLE0=Cry, cry, cry
TTITLE1=Folsom Prison blues
TTITLE2=I'm so doggone lonesome
TTITLE3=I walk the line
TTITLE4=There you go
TTITLE5=Train of love
TTITLE6=Next in line
TTITLE7=Don't make me go
TTITLE8=Home of the blues
TTITLE9=Give my love to Rose
TTITLE10=Ballad of a teenage queen
TTITLE11=Quess things happen that way
TTITLE12=Come in stranger
TTITLE13=The ways of a woman in love
TTITLE14=You're the nearest thing to heaven
TTITLE15=Luther played the boogie
TTITLE16=Thanks a lot
TTITLE17=Katy too
EXTD=YEAR: 1989
EXTT0=
EXTT1=
EXTT2=
EXTT3=
EXTT4=
EXTT5=
EXTT6=
EXTT7=
EXTT8=
EXTT9=
EXTT10=
EXTT11=
EXTT12=
EXTT13=
EXTT14=
EXTT15=
EXTT16=
EXTT17=
PLAYORDER=
